<?xml version="1.0" encoding="UTF-8" standalone="no"?> <!--part of the matt icon theme by sixsixfive released under CC0 (https://creativecommons.org/publicdomain/zero/1.0/) on openclipart--> <svg xmlns="http://www.w3.org/2000/svg" xmlns:xlink="http://www.w3.org/1999/xlink" viewBox="0 0 128 128"><defs id="0"><linearGradient id="2"><stop id="O" stop-color="#eee"></stop><stop offset="1" id="P" stop-color="#c4c4c4"></stop></linearGradient><linearGradient id="3"><stop id="Q" stop-opacity="0.323"></stop><stop offset="1" id="R" stop-color="#fff" stop-opacity="0"></stop></linearGradient><linearGradient id="4"><stop id="S"></stop><stop id="T" offset="1" stop-opacity="0"></stop></linearGradient><radialGradient xlink:href="#4" id="5" gradientUnits="userSpaceOnUse" gradientTransform="matrix(1,0,0,0.24256,0,382.773)" cx="303.39" cy="505.35" r="204.47"></radialGradient><radialGradient xlink:href="#2" id="6" gradientUnits="userSpaceOnUse" gradientTransform="matrix(1,0,0,1.2211099,0,3.9113341)" cx="475.43" cy="-33.12" r="17.06"></radialGradient><radialGradient xlink:href="#2" id="7" gradientUnits="userSpaceOnUse" gradientTransform="matrix(1,0,0,1.2211099,0,3.9113341)" cx="489.47" cy="-35.741" r="17.06"></radialGradient><radialGradient xlink:href="#3" id="8" gradientUnits="userSpaceOnUse" gradientTransform="matrix(1.7143246,-0.97267972,0.54592521,0.70725354,-482.42002,431.90292)" cx="310.32" cy="516.31" r="225.72"></radialGradient><radialGradient xlink:href="#2" id="9" gradientUnits="userSpaceOnUse" gradientTransform="matrix(0.80785066,0.30446773,-0.39979672,1.0607891,-375.36164,826.24047)" cx="489.47" cy="-35.741" r="17.06"></radialGradient><radialGradient xlink:href="#2" id="A" gradientUnits="userSpaceOnUse" gradientTransform="matrix(-0.81750834,0.16100802,0.2114197,1.0734706,507.28722,894.68073)" cx="475.43" cy="-33.12" r="17.06"></radialGradient></defs><g id="1" transform="translate(0,-924.36218)"><path transform="matrix(0.25189491,0,0,0.13924163,-11.213979,964.37787)" id="B" d="m 102.0159,501.77423 c 8.47187,-25.93398 105.49877,-45.35616 216.71563,-43.38066 111.21687,1.97551 194.50814,24.60061 186.03627,50.53459 -8.47188,25.93398 -105.49877,45.35616 -216.71564,43.38066 C 177.0994,550.33801 93.886535,527.81087 101.9655,501.932" opacity="0.375" fill="url(#5)"></path><path id="C" d="m 96.540846,955.90206 c 5.221954,-10.80376 1.745333,-25.50993 9.703594,-17.50999 7.95826,7.99993 9.58393,24.11057 17.40846,26.52124 7.82453,2.41068 -1.66476,1.3678 -3.9889,0.36965 -2.32415,-0.99816 -6.35694,-4.77957 -6.35694,-4.77957 0,0 10.23572,8.79868 7.78304,9.07437 -2.45993,0.27649 -10.64381,-7.88699 -10.64381,-7.88699 0,0 3.12377,6.0403 1.98912,8.13563 -1.13463,2.09533 -3.41729,-5.56652 -4.184,-7.49536 -0.76671,-1.92885 -2.59366,-5.31276 -5.18938,-3.76161 -2.59572,1.55115 -1.63835,7.39416 -1.63835,7.39416 l -4.882834,-10.06153 z" fill="url(#A)" fill-rule="evenodd" stroke="#323232" stroke-width="0.864"></path><path id="D" d="m 109.58732,947.50898 c -0.82809,-4.20459 -6.70531,-9.49461 -6.70531,-9.49461 0,0 -1.80055,2.64245 -1.40622,4.64464" fill="none" stroke="#323232" stroke-width="0.432"></path><path id="E" d="m 33.90016,959.1104 c -3.487015,-11.93419 2.583012,-26.36731 -6.918883,-19.55441 -9.501894,6.81289 -13.920838,22.99806 -22.3293551,24.12219 -8.4085091,1.12414 1.4670873,1.68272 4.012981,1.06053 2.5459021,-0.62219 7.3142711,-3.79611 7.3142711,-3.79611 0,0 -11.9659479,7.2393 -9.5067436,7.94085 2.4664686,0.70362 12.2269196,-6.23778 12.2269196,-6.23778 0,0 -4.226103,5.63786 -3.425273,7.9733 0.800823,2.33543 4.444951,-5.10347 5.558617,-6.94332 1.113666,-1.83984 3.559854,-4.98514 5.946897,-2.95571 2.387052,2.02943 0.408562,7.83652 0.408562,7.83652 l 6.712007,-9.44606 z" fill="url(#9)" fill-rule="evenodd" stroke="#323232" stroke-width="0.895"></path><path id="F" d="m 22.004635,948.30034 c 1.565933,-4.15492 8.47736,-8.55477 8.47736,-8.55477 0,0 1.387662,3.00852 0.64198,4.98705" fill="url(#9)" stroke="#323232" stroke-width="0.448"></path><path d="m 63.326316,936.02651 c -12.95726,0.10209 -23.83204,3.2759 -24.837716,7.4056 -1.022971,4.39567 9.508724,8.22893 23.557735,8.56368 14.082454,0.33555 26.385907,-2.9701 27.458629,-7.37512 1.072722,-4.40502 -9.475282,-8.22813 -23.557736,-8.56368 -0.880153,-0.021 -1.757094,-0.0373 -2.620912,-0.0305 z m -0.274282,3.62661 c 0.513497,-0.004 1.031054,0.018 1.554262,0.0305 8.371335,0.19947 14.656515,2.47087 14.018834,5.08945 -0.637681,2.61857 -7.933178,4.58797 -16.304513,4.3885 -8.351455,-0.19899 -14.62694,-2.47644 -14.018834,-5.08944 l 0,-0.0305 c 0.597827,-2.45491 7.04779,-4.32782 14.750251,-4.38851 z" id="G" fill="#f3c300" stroke="#b28800" stroke-linecap="round" stroke-width="1.204"></path><path d="M 106.3663,289.25091 C 115.83466,183.83323 224.27408,104.88502 348.57253,112.91515 472.87099,120.94527 565.95917,212.91289 556.49082,318.33057 547.02246,423.74825 438.58304,502.69646 314.28458,494.66633 190.2813,486.65528 97.280746,395.0859 106.30998,289.89224" id="H" transform="matrix(0.1999288,0,0,0.23319325,-1.2302017,918.13389)" fill="url(#8)"></path><path transform="matrix(0.1999288,0,0,0.23319325,-1.2302017,918.13389)" id="I" d="M 106.3663,289.25091 C 115.83466,183.83323 224.27408,104.88502 348.57253,112.91515 472.87099,120.94527 565.95917,212.91289 556.49082,318.33057 547.02246,423.74825 438.58304,502.69646 314.28458,494.66633 190.2813,486.65528 97.280746,395.0859 106.30998,289.89224" fill="#6193cf" stroke="#0057ae" stroke-linecap="round" stroke-width="16.789"></path><path id="J" d="m 47.108145,1007.0115 c -3.393587,-8.68688 36.566322,-6.7086 35.676728,-4.0743 -8.516566,25.2202 -22.614943,37.5099 -35.676728,4.0743 z" fill="#ddd" fill-rule="evenodd" stroke="#323232" stroke-width="2.271"></path><path id="K" d="m 236.10176,-120.08662 c 0,7.28096 -3.48777,13.18335 -7.79016,13.18335 -4.30239,0 -7.79016,-5.90239 -7.79016,-13.18335 0,-7.28096 3.48777,-13.18334 7.79016,-13.18334 4.30239,0 7.79016,5.90238 7.79016,13.18334 z" transform="matrix(1.0156158,-0.1267719,0.1267719,1.0156158,-138.52082,1121.584)" fill="#323232"></path><path transform="matrix(1.0234973,0,0,1.0234973,-186.21005,1096.0402)" d="m 236.10176,-120.08662 c 0,7.28096 -3.48777,13.18335 -7.79016,13.18335 -4.30239,0 -7.79016,-5.90239 -7.79016,-13.18335 0,-7.28096 3.48777,-13.18334 7.79016,-13.18334 4.30239,0 7.79016,5.90238 7.79016,13.18334 z" id="L" fill="#323232"></path><path id="M" d="m 51.034484,59.379311 c 0,2.856645 -1.852615,5.172413 -4.137931,5.172413 -2.285316,0 -4.137931,-2.315768 -4.137931,-5.172413 0,-2.856646 1.852615,-5.172414 4.137931,-5.172414 2.285316,0 4.137931,2.315768 4.137931,5.172414 z" transform="translate(0.703662,906.54566)" fill="#eee"></path><path transform="matrix(-0.83333341,0,0,1,116.33765,904.8188)" d="m 51.034484,59.379311 c 0,2.856645 -1.852615,5.172413 -4.137931,5.172413 -2.285316,0 -4.137931,-2.315768 -4.137931,-5.172413 0,-2.856646 1.852615,-5.172414 4.137931,-5.172414 2.285316,0 4.137931,2.315768 4.137931,5.172414 z" id="N" fill="#eee"></path></g></svg> 